<?xml version="1.0" encoding="UTF-8" standalone="no"?>
<!-- Generator: Adobe Illustrator 27.5.0, SVG Export Plug-In . SVG Version: 6.00 Build 0)  -->

<svg
   version="1.1"
   x="0px"
   y="0px"
   viewBox="0 0 100 100"
   xml:space="preserve"
   id="svg36"
   sodipodi:docname="3903724_2059672.svg"
   width="100"
   height="100"
   xmlns:inkscape="http://www.inkscape.org/namespaces/inkscape"
   xmlns:sodipodi="http://sodipodi.sourceforge.net/DTD/sodipodi-0.dtd"
   xmlns="http://www.w3.org/2000/svg"
   xmlns:svg="http://www.w3.org/2000/svg"><defs
   id="defs36" /><sodipodi:namedview
   id="namedview36"
   pagecolor="#ffffff"
   bordercolor="#000000"
   borderopacity="0.25"
   inkscape:showpageshadow="2"
   inkscape:pageopacity="0.0"
   inkscape:pagecheckerboard="0"
   inkscape:deskcolor="#d1d1d1"
   inkscape:export-bgcolor="#ffffff00"><inkscape:page
     x="0"
     y="0"
     width="100"
     height="100"
     id="page37"
     margin="0"
     bleed="0" /></sodipodi:namedview>

<g
   id="g22"
   transform="translate(-145.737,-69.804001)">
		<circle
   cx="195.737"
   cy="119.804"
   r="32.437"
   id="circle21" />
		<path
   id="XMLID_42_"
   style="fill:#ffffff"
   d="m 191.692,135.85 h 6.462 v -16.181 h 4.508 l 0.481,-5.418 h -4.989 c 0,0 0,-2.023 0,-3.086 0,-1.277 0.257,-1.782 1.492,-1.782 0.994,0 3.497,0 3.497,0 v -5.623 c 0,0 -3.687,0 -4.474,0 -4.808,0 -6.976,2.118 -6.976,6.171 0,3.531 0,4.32 0,4.32 h -3.361 v 5.486 h 3.361 v 16.113 z" />
	</g>

</svg>
