<?xml version="1.0" encoding="UTF-8" standalone="no"?>
<!-- Generator: Adobe Illustrator 27.5.0, SVG Export Plug-In . SVG Version: 6.00 Build 0)  -->

<svg
   version="1.1"
   x="0px"
   y="0px"
   viewBox="0 0 100 100"
   xml:space="preserve"
   id="svg36"
   sodipodi:docname="3903724_2059672.svg"
   width="100"
   height="100"
   xmlns:inkscape="http://www.inkscape.org/namespaces/inkscape"
   xmlns:sodipodi="http://sodipodi.sourceforge.net/DTD/sodipodi-0.dtd"
   xmlns="http://www.w3.org/2000/svg"
   xmlns:svg="http://www.w3.org/2000/svg"><defs
   id="defs36" /><sodipodi:namedview
   id="namedview36"
   pagecolor="#ffffff"
   bordercolor="#000000"
   borderopacity="0.25"
   inkscape:showpageshadow="2"
   inkscape:pageopacity="0.0"
   inkscape:pagecheckerboard="0"
   inkscape:deskcolor="#d1d1d1"
   inkscape:export-bgcolor="#ffffff00"><inkscape:page
     x="0"
     y="0"
     width="100"
     height="100"
     id="page39"
     margin="0"
     bleed="0" /></sodipodi:namedview>

<g
   id="g23"
   transform="translate(-49.459,-69.804001)">
		<circle
   cx="99.459"
   cy="119.804"
   r="32.437"
   id="circle22" />
		<g
   id="XMLID_47_">
			<path
   id="XMLID_52_"
   style="fill:#ffffff"
   d="m 99.459,107.277 c 4.08,0 4.563,0.015 6.175,0.089 1.49,0.068 2.299,0.317 2.838,0.526 0.713,0.277 1.222,0.608 1.757,1.143 0.535,0.535 0.866,1.044 1.143,1.757 0.209,0.539 0.458,1.348 0.526,2.838 0.073,1.611 0.089,2.094 0.089,6.175 0,4.08 -0.016,4.563 -0.089,6.175 -0.068,1.49 -0.317,2.299 -0.526,2.837 -0.277,0.714 -0.608,1.222 -1.143,1.757 -0.535,0.535 -1.044,0.866 -1.757,1.143 -0.539,0.209 -1.348,0.458 -2.838,0.526 -1.611,0.073 -2.094,0.089 -6.175,0.089 -4.081,0 -4.563,-0.015 -6.175,-0.089 -1.49,-0.068 -2.299,-0.317 -2.837,-0.526 -0.714,-0.277 -1.222,-0.608 -1.757,-1.143 -0.535,-0.535 -0.866,-1.044 -1.143,-1.757 -0.209,-0.538 -0.458,-1.347 -0.526,-2.837 -0.073,-1.611 -0.089,-2.094 -0.089,-6.175 0,-4.08 0.016,-4.563 0.089,-6.175 0.068,-1.49 0.317,-2.299 0.526,-2.838 0.277,-0.713 0.608,-1.222 1.143,-1.757 0.535,-0.535 1.044,-0.866 1.757,-1.143 0.538,-0.209 1.348,-0.458 2.837,-0.526 1.612,-0.074 2.095,-0.089 6.175,-0.089 m 0,-2.754 c -4.15,0 -4.67,0.018 -6.3,0.092 -1.627,0.074 -2.737,0.333 -3.709,0.71 -1.005,0.391 -1.857,0.913 -2.707,1.763 -0.85,0.849 -1.372,1.702 -1.762,2.707 -0.378,0.972 -0.636,2.083 -0.71,3.709 -0.075,1.63 -0.092,2.15 -0.092,6.3 0,4.15 0.017,4.67 0.092,6.3 0.074,1.627 0.333,2.737 0.71,3.709 0.39,1.005 0.913,1.857 1.762,2.707 0.85,0.85 1.702,1.372 2.707,1.763 0.972,0.377 2.083,0.636 3.709,0.71 1.63,0.074 2.15,0.092 6.3,0.092 4.15,0 4.67,-0.018 6.3,-0.092 1.627,-0.074 2.737,-0.333 3.709,-0.71 1.005,-0.39 1.857,-0.913 2.707,-1.763 0.849,-0.85 1.372,-1.702 1.763,-2.707 0.378,-0.972 0.636,-2.083 0.71,-3.709 0.074,-1.63 0.092,-2.15 0.092,-6.3 0,-4.15 -0.017,-4.67 -0.092,-6.3 -0.074,-1.627 -0.333,-2.737 -0.71,-3.709 -0.391,-1.005 -0.913,-1.857 -1.763,-2.707 -0.85,-0.85 -1.702,-1.372 -2.707,-1.763 -0.972,-0.377 -2.083,-0.636 -3.709,-0.71 -1.63,-0.074 -2.15,-0.092 -6.3,-0.092" />
			<path
   id="XMLID_49_"
   style="fill:#ffffff"
   d="m 99.459,111.958 c -4.334,0 -7.847,3.513 -7.847,7.847 0,4.334 3.513,7.847 7.847,7.847 4.334,0 7.847,-3.513 7.847,-7.847 0,-4.334 -3.513,-7.847 -7.847,-7.847 m 0,12.94 c -2.813,0 -5.094,-2.281 -5.094,-5.094 0,-2.813 2.28,-5.094 5.094,-5.094 2.813,0 5.094,2.28 5.094,5.094 0,2.814 -2.281,5.094 -5.094,5.094" />
			<path
   id="XMLID_48_"
   style="fill:#ffffff"
   d="m 109.45,111.647 c 0,1.013 -0.821,1.834 -1.834,1.834 -1.013,0 -1.834,-0.821 -1.834,-1.834 0,-1.013 0.821,-1.834 1.834,-1.834 1.013,10e-4 1.834,0.822 1.834,1.834" />
		</g>
	</g>

</svg>
