<?xml version="1.0" encoding="UTF-8" standalone="no"?>
<!-- Generator: Adobe Illustrator 27.5.0, SVG Export Plug-In . SVG Version: 6.00 Build 0)  -->

<svg
   version="1.1"
   x="0px"
   y="0px"
   viewBox="0 0 100 100"
   xml:space="preserve"
   id="svg36"
   sodipodi:docname="3903724_2059672.svg"
   width="100"
   height="100"
   xmlns:inkscape="http://www.inkscape.org/namespaces/inkscape"
   xmlns:sodipodi="http://sodipodi.sourceforge.net/DTD/sodipodi-0.dtd"
   xmlns="http://www.w3.org/2000/svg"
   xmlns:svg="http://www.w3.org/2000/svg"><defs
   id="defs36" /><sodipodi:namedview
   id="namedview36"
   pagecolor="#ffffff"
   bordercolor="#000000"
   borderopacity="0.25"
   inkscape:showpageshadow="2"
   inkscape:pageopacity="0.0"
   inkscape:pagecheckerboard="0"
   inkscape:deskcolor="#d1d1d1"
   inkscape:export-bgcolor="#ffffff00"><inkscape:page
     x="0"
     y="0"
     width="100"
     height="100"
     id="page38"
     margin="0"
     bleed="0" /></sodipodi:namedview>

<g
   id="g13"
   transform="translate(-49.459,-163.85201)">
		<circle
   cx="99.459"
   cy="213.85201"
   r="32.437"
   id="circle11" />
		<g
   id="g12">
			<path
   style="fill:#eff0f0"
   d="m 114.266,217.051 v 10.95 h -6.349 v -10.217 c 0,-2.565 -0.917,-4.317 -3.215,-4.317 -1.754,0 -2.796,1.18 -3.257,2.322 -0.167,0.408 -0.21,0.975 -0.21,1.547 v 10.665 h -6.349 c 0,0 0.085,-17.304 0,-19.095 h 6.35 v 2.706 c -0.013,0.021 -0.031,0.042 -0.042,0.063 h 0.042 v -0.063 c 0.844,-1.298 2.348,-3.154 5.722,-3.154 4.177,0 7.308,2.729 7.308,8.593 z M 88.244,199.702 c -2.172,0 -3.593,1.426 -3.593,3.299 0,1.833 1.38,3.3 3.509,3.3 h 0.041 c 2.214,0 3.591,-1.467 3.591,-3.3 -0.041,-1.873 -1.375,-3.299 -3.548,-3.299 z m -3.215,28.3 h 6.347 v -19.095 h -6.347 z"
   id="path11" />
		</g>
	</g>

</svg>
