<?xml version="1.0" encoding="UTF-8" standalone="no"?>
<svg
   width="50"
   height="50"
   enable-background="new 0 0 500 500"
   version="1.1"
   xml:space="preserve"
   id="svg1"
   sodipodi:docname="logo parrafo vital.svg"
   inkscape:version="1.4.2 (f4327f4, 2025-05-13)"
   xmlns:inkscape="http://www.inkscape.org/namespaces/inkscape"
   xmlns:sodipodi="http://sodipodi.sourceforge.net/DTD/sodipodi-0.dtd"
   xmlns="http://www.w3.org/2000/svg"
   xmlns:svg="http://www.w3.org/2000/svg"><defs
   id="defs1">
  
  
  
  
 </defs><sodipodi:namedview
   id="namedview1"
   pagecolor="#ffffff"
   bordercolor="#000000"
   borderopacity="0.25"
   inkscape:showpageshadow="2"
   inkscape:pageopacity="0.0"
   inkscape:pagecheckerboard="0"
   inkscape:deskcolor="#d1d1d1"
   inkscape:zoom="7.92"
   inkscape:cx="30.997475"
   inkscape:cy="26.578283"
   inkscape:window-width="1366"
   inkscape:window-height="697"
   inkscape:window-x="-8"
   inkscape:window-y="-8"
   inkscape:window-maximized="1"
   inkscape:current-layer="svg1" />
 <g
   id="BACKGROUND" /><g
   id="OBJECTS"
   transform="matrix(0.3335541,0,0,0.3335541,-58.722079,-43.74456)">
   <g
   id="svg_2">
    <g
   id="svg_3">
     <path
   d="m 285,196.72 c -10.27,-16.72 -8.85,-59.21 -8.85,-59.21 -3.76,-1.11 -7.78,-1.89 -11.91,-2.43 -0.02,0.13 -0.54,5.48 -1.8,7.91 0,0 -0.86,-5.32 -2.35,-8.37 -12.87,-1.15 -26.65,-0.08 -38.37,1.56 0,0.03 1.21,7.38 0,11.62 0,0 -4.1,-9.82 -5.06,-10.86 -13.85,2.23 -23.75,4.96 -23.75,4.96 0,0 -8.48,2.41 -8.48,15.15 0,8.5 3.04,11.76 3.04,11.76 4.09,0.22 8.2,0.05 12.32,-0.45 -0.07,3.5 -0.06,6.83 0.01,10.05 2.25,0.47 5.57,1.24 9.6,2.43 l -7.2,1.32 4.54,1.89 -6.72,0.76 c 0.85,16.94 3.63,29.81 7.08,39.51 6.9,0.23 10.52,1.92 10.52,1.92 -3.41,0.54 -6.5,2 -8.53,3.16 0.09,0.21 0.18,0.42 0.28,0.63 l -0.01,0.01 c 0.06,0.13 0.12,0.25 0.17,0.38 0.18,0.4 0.36,0.8 0.55,1.19 0.1,0.23 0.21,0.46 0.32,0.69 0.08,0.17 0.16,0.35 0.25,0.51 8.77,18.29 18.89,24.18 28.53,31.36 l -7.31,3.95 c 3.94,9.56 13.57,9.56 13.57,9.56 0,0 6.41,-2.83 15.31,-7 l -2.36,-9.5 7.26,7.18 c 9.65,-4.6 21.09,-10.28 30.42,-15.58 l -1.7,-3.1 2.13,0.56 -1,-2.69 3.81,3.36 c 7.86,-4.65 13.65,-8.84 14.56,-11.53 3.25,-9.57 -18.59,-25.94 -28.87,-42.66 z"
   fill="#dba726"
   id="svg_4" />
     <path
   d="m 285,196.72 c -10.27,-16.72 -8.85,-59.21 -8.85,-59.21 -3.76,-1.11 -7.78,-1.89 -11.91,-2.43 -0.02,0.13 -0.54,5.48 -1.8,7.91 0,0 -0.86,-5.32 -2.35,-8.37 -12.87,-1.15 -26.65,-0.08 -38.37,1.56 0,0.03 1.21,7.38 0,11.62 0,0 -4.1,-9.82 -5.06,-10.86 -13.85,2.23 -23.75,4.96 -23.75,4.96 0,0 -8.48,2.41 -8.48,15.15 0,8.5 3.04,11.76 3.04,11.76 4.09,0.22 8.2,0.05 12.32,-0.45 -0.07,3.5 -0.06,6.83 0.01,10.05 2.25,0.47 5.57,1.24 9.6,2.43 l -7.2,1.32 4.54,1.89 -6.72,0.76 c 0.85,16.94 3.63,29.81 7.08,39.51 6.9,0.23 10.52,1.92 10.52,1.92 -3.41,0.54 -6.5,2 -8.53,3.16 0.09,0.21 0.18,0.42 0.28,0.63 l -0.01,0.01 c 0.06,0.13 0.12,0.25 0.17,0.38 0.18,0.4 0.36,0.8 0.55,1.19 0.1,0.23 0.21,0.46 0.32,0.69 0.08,0.17 0.16,0.35 0.25,0.51 8.77,18.29 18.89,24.18 28.53,31.36 l -7.31,3.95 c 3.94,9.56 13.57,9.56 13.57,9.56 0,0 6.41,-2.83 15.31,-7 l -2.36,-9.5 7.26,7.18 c 9.65,-4.6 21.09,-10.28 30.42,-15.58 l -1.7,-3.1 2.13,0.56 -1,-2.69 3.81,3.36 c 7.86,-4.65 13.65,-8.84 14.56,-11.53 3.25,-9.57 -18.59,-25.94 -28.87,-42.66 z"
   fill="#ffffff"
   id="svg_5"
   opacity="0.5" />
    </g>
    <path
   d="m 188.22,168.37 c 4.2,-2.67 6.05,-8.15 5.38,-12.69 -0.17,-1.17 -0.69,-2.48 -1.95,-2.85 -0.9,-0.26 -1.93,0.08 -2.58,0.69 -0.64,0.62 -0.95,1.45 -1.07,2.29 -0.1,0.65 -0.08,1.35 0.27,1.93 0.34,0.59 1.09,1.02 1.82,0.91 l 3.5,-0.68"
   fill="none"
   id="svg_6"
   stroke="#2b2b2b"
   stroke-linecap="round"
   stroke-linejoin="round"
   stroke-miterlimit="10"
   stroke-width="0.75" />
    <path
   d="m 199.78,168.56 c 0.01,-0.15 0.01,-0.31 0.01,-0.46 -0.06,-14.44 -1.6,-24.92 -6.88,-26.2"
   fill="none"
   id="svg_7"
   stroke="#2b2b2b"
   stroke-linecap="round"
   stroke-linejoin="round"
   stroke-miterlimit="10"
   stroke-width="0.75" />
    <line
   fill="none"
   id="svg_8"
   stroke="#2b2b2b"
   stroke-linecap="round"
   stroke-linejoin="round"
   stroke-miterlimit="10"
   stroke-width="0.75"
   x1="190.89999"
   x2="198.82001"
   y1="152.75"
   y2="152.75" />
    <g
   id="svg_9">
     <path
   d="m 273.64,156.78 c -1.53,0.22 -2.55,-1.94 -4.1,-1.9 -0.89,0.03 -1.57,0.78 -2.4,1.11 -2,0.8 -4.45,-0.99 -6.33,0.07 -0.57,0.33 -0.99,0.89 -1.56,1.24 -3.01,1.86 -6.88,-3.25 -10.02,-1.61 -0.87,0.46 -1.51,1.41 -2.49,1.55 -1.36,0.21 -2.64,-1.26 -3.96,-0.87 -0.51,0.14 -0.9,0.54 -1.38,0.76 -2.42,1.13 -5.28,-2.63 -7.58,-1.25 -0.66,0.39 -1.03,1.13 -1.61,1.64 -1.02,0.89 -2.51,0.96 -3.86,0.98 -4.5,0.08 -9,0.16 -13.5,0.24 -2.38,0.04 -4.8,0.09 -7.05,0.83"
   fill="none"
   id="svg_10"
   stroke="#2b2b2b"
   stroke-linecap="round"
   stroke-linejoin="round"
   stroke-miterlimit="10"
   stroke-width="0.5"
   class="pluma-stroke" />
     <path
   d="m 208.83,174.4 c 3.18,0.27 7.22,0.04 8.43,-2.92 0.17,-0.43 0.27,-0.9 0.58,-1.26 0.8,-0.94 2.38,-0.42 3.29,0.43 0.91,0.85 1.67,1.99 2.88,2.27 2.44,0.57 4.77,-2.76 7.04,-1.71 0.68,0.31 1.27,1.01 2.01,0.89 1.16,-0.17 1.22,-2.04 2.3,-2.52 1.28,-0.58 2.29,1.2 3.53,1.85 0.72,0.39 1.59,0.38 2.42,0.33 2.94,-0.18 5.86,-0.73 8.67,-1.62 1.09,-0.35 2.16,-0.74 3.29,-0.94 1.43,-0.25 2.89,-0.18 4.34,-0.16 5.11,0.04 10.22,-0.73 15.09,-2.27"
   fill="none"
   id="svg_11"
   stroke="#2b2b2b"
   stroke-linecap="round"
   stroke-linejoin="round"
   stroke-miterlimit="10"
   stroke-width="0.5"
   class="pluma-stroke" />
     <path
   d="m 274.41,179.9 c -2.74,0.74 -5.48,1.49 -8.22,2.23 -0.84,0.23 -1.76,0.46 -2.57,0.13 -0.49,-0.21 -0.89,-0.6 -1.4,-0.75 -1.47,-0.44 -2.65,1.23 -4.07,1.8 -1.94,0.76 -4.24,-0.64 -6.18,0.14 -0.67,0.27 -1.21,0.77 -1.84,1.13 -1.27,0.72 -2.8,0.81 -4.26,0.73 -3.14,-0.17 -6.3,-1.03 -9.37,-0.42 -2,0.4 -3.82,1.39 -5.77,1.96 -1.78,0.52 -3.64,0.68 -5.49,0.83 -4.77,0.39 -9.53,0.79 -14.3,1.18"
   fill="none"
   id="svg_12"
   stroke="#2b2b2b"
   stroke-linecap="round"
   stroke-linejoin="round"
   stroke-miterlimit="10"
   stroke-width="0.5"
   class="pluma-stroke" />
     <path
   d="m 215.22,205.8 c -0.29,-1.77 2.16,-2.53 3.95,-2.57 2.49,-0.05 4.97,-0.1 7.45,-0.15 1.36,-0.03 2.76,-0.07 4.02,-0.6 2.51,-1.08 4.16,-4.06 6.9,-4.22 2.63,-0.17 5.12,2.46 7.59,1.55 0.89,-0.33 1.56,-1.06 2.37,-1.53 0.78,-0.44 1.66,-0.64 2.53,-0.83 3.29,-0.72 6.58,-1.44 9.87,-2.16 4.62,-1.01 9.23,-2.02 13.85,-3.03"
   fill="none"
   id="svg_13"
   stroke="#2b2b2b"
   stroke-linecap="round"
   stroke-linejoin="round"
   stroke-miterlimit="10"
   stroke-width="0.5"
   class="pluma-stroke" />
     <path
   d="m 217.09,220.55 c 0.4,1.19 2.12,1.22 3.23,0.65 1.11,-0.57 2.1,-1.52 3.35,-1.59 0.7,-0.05 1.41,0.2 2.11,0.11 1.85,-0.26 2.72,-2.72 4.55,-3.12 1.78,-0.39 3.79,1.35 5.31,0.35 1.04,-0.68 1.08,-2.22 1.93,-3.12 0.96,-1.03 2.62,-0.93 3.95,-0.46 1.32,0.46 2.59,1.21 4,1.25 2.87,0.07 4.99,-2.79 7.8,-3.4 1.9,-0.41 3.96,0.25 5.8,-0.38 1.06,-0.36 1.94,-1.12 2.92,-1.67 1.18,-0.66 2.51,-1.02 3.82,-1.36 3.77,-1 7.55,-2 11.33,-3"
   fill="none"
   id="svg_14"
   stroke="#2b2b2b"
   stroke-linecap="round"
   stroke-linejoin="round"
   stroke-miterlimit="10"
   stroke-width="0.5"
   class="pluma-stroke" />
     <path
   d="m 227.16,239.03 c -0.05,-1.99 2.32,-3.1 4.3,-3.22 1.98,-0.11 4.18,0.19 5.77,-0.99 0.75,-0.56 1.28,-1.4 2.1,-1.84 0.98,-0.52 2.18,-0.36 3.28,-0.19 4.08,0.63 8.55,1.11 12.08,-1.04 2.8,-1.7 4.8,-4.95 8.04,-5.41 1.49,-0.22 3.18,0.19 4.41,-0.69 0.97,-0.69 1.34,-1.99 2.29,-2.7 0.59,-0.44 1.32,-0.61 2.04,-0.78 6.61,-1.56 13.05,-3.85 19.18,-6.8"
   fill="none"
   id="svg_15"
   stroke="#2b2b2b"
   stroke-linecap="round"
   stroke-linejoin="round"
   stroke-miterlimit="10"
   stroke-width="0.5"
   class="pluma-stroke" />
     <path
   d="m 301.25,224.17 c 0.58,1.1 -0.93,2.2 -2.17,2.2 -1.25,0 -2.62,-0.41 -3.64,0.29 -1.04,0.7 -1.2,2.23 -2.17,3.01 -0.71,0.57 -1.74,0.64 -2.38,1.29 -0.59,0.6 -0.68,1.51 -0.86,2.34 -0.94,4.29 -5.63,7.38 -9.95,6.55 -0.81,-0.16 -1.64,-0.44 -2.45,-0.27 -2.31,0.48 -2.77,3.95 -4.97,4.76 -1.26,0.47 -2.76,-0.09 -3.95,0.52 -0.92,0.47 -1.38,1.49 -2.08,2.24 -2.27,2.46 -6.37,1.69 -9.35,3.23 -1.73,0.9 -3.01,2.56 -4.8,3.34 -1.06,0.46 -2.23,0.59 -3.36,0.82 -2.98,0.62 -5.79,2.03 -8.06,4.05"
   fill="none"
   id="svg_16"
   stroke="#2b2b2b"
   stroke-linecap="round"
   stroke-linejoin="round"
   stroke-miterlimit="10"
   stroke-width="0.5"
   class="pluma-stroke" />
    </g>
    <path
   d="m 239.18,264.17 c 0,0 9.71,6.57 6.26,13.51"
   fill="none"
   id="svg_17"
   stroke="#2b2b2b"
   stroke-linecap="round"
   stroke-linejoin="round"
   stroke-miterlimit="10"
   stroke-width="0.75"
   class="pluma-stroke" />
   </g>
   <g
   id="svg_18">
    <path
   d="m 255.32,248.68 c -4.34,-4.05 -11.88,-7.23 -11.88,-7.23 0,0 11.37,-1.83 18.82,-4.11 6.38,-1.95 12.08,-6.06 15.95,-11.49 -3.18,2.69 -7.32,1.04 -11.45,0.5 -4.14,-0.55 -8.07,-0.4 -8.07,-0.4 0,0 4.21,-2.25 9.73,-2.44 5.52,-0.2 11.36,-0.13 16.11,-2.95 3.5,-2.07 5.98,-5.47 8.31,-8.81 3.5,-5 6.9,-10.07 10.2,-15.2 -5.26,0.58 -11.31,0.46 -16.59,0.12 5.25,-0.53 10.48,-1.92 15.42,-3.8 4.93,-1.89 10.09,-7.12 11.73,-10.81 1.65,-3.69 3.97,-21.9 3.97,-21.9 0,0 -10.9,-1.02 -21.16,3.88 -2.02,0.99 -3.77,15.62 -3.77,15.62 0,0 -3.74,-6.75 -3.05,-13.51 -2.27,1.19 -4.53,2.39 -6.8,3.58 -3.71,1.95 -7.43,3.92 -10.7,6.55 -3.26,2.63 -8.19,4.58 -9.49,8.56 -1.71,5.25 1.47,12.35 2.53,17.77 -3.53,-3.02 -5.01,-12.06 -5.53,-17.74 -4.19,3.58 -13.69,14.43 -17.88,18.01 -2.58,2.2 -5.24,4.53 -6.48,7.68 -1.4,3.56 -0.74,7.56 -0.05,11.32 0.56,3.12 1.12,6.24 1.69,9.35 -2.82,-4.44 -4.81,-12.35 -6.85,-17.02 -1.38,2.52 -5.08,6.26 -6.23,8.9 -2.35,5.42 -2.53,11.75 -0.5,17.29 0.76,2.05 0.26,9.1 -0.52,9.88 5.22,-2.88 12.45,-1.03 17.65,-0.49 5.2,0.55 11.38,-0.66 16.96,1.43 -0.63,-0.78 -1.36,-1.88 -2.07,-2.54 z"
   fill="#dba726"
   id="svg_19" />
    <g
   id="svg_20">
     <g
   id="svg_21">
      <path
   d="m 311.99,166.02 c -8.38,7.54 -16.59,15.27 -24.81,22.98 -8.2,7.73 -16.38,15.49 -24.53,23.28 -8.13,7.8 -16.28,15.59 -24.33,23.46 -2.04,1.95 -4.02,3.95 -6.04,5.92 -2.01,1.97 -4.01,3.95 -5.98,5.96 -1.98,2.01 -3.99,3.99 -5.94,6.02 -1.95,2.03 -3.89,4.07 -5.96,5.99 v 0.01 c -0.14,0.13 -0.36,0.12 -0.49,-0.02 -0.12,-0.13 -0.12,-0.32 -0.01,-0.45 3.63,-4.33 7.56,-8.38 11.43,-12.48 1.94,-2.06 3.89,-4.09 5.86,-6.11 1.97,-2.02 3.92,-4.06 5.91,-6.06 7.93,-8.03 16.01,-15.9 24.19,-23.67 8.18,-7.77 16.48,-15.41 24.83,-22.99 8.35,-7.59 16.78,-15.08 25.19,-22.6 0.21,-0.18 0.53,-0.16 0.72,0.04 0.19,0.21 0.17,0.54 -0.04,0.72 z"
   fill="#2b2b2b"
   id="svg_22" />
     </g>
     <line
   fill="none"
   id="svg_23"
   stroke="#2b2b2b"
   stroke-linecap="round"
   stroke-linejoin="round"
   stroke-miterlimit="10"
   stroke-width="0.5"
   x1="231.3"
   x2="225.67999"
   y1="241.53999"
   y2="220.11"
   class="pluma-stroke" />
     <line
   fill="none"
   id="svg_24"
   stroke="#2b2b2b"
   stroke-linecap="round"
   stroke-linejoin="round"
   stroke-miterlimit="10"
   stroke-width="0.5"
   x1="258.09"
   x2="251.53999"
   y1="215.25999"
   y2="192.95"
   class="pluma-stroke" />
     <line
   fill="none"
   id="svg_25"
   stroke="#2b2b2b"
   stroke-linecap="round"
   stroke-linejoin="round"
   stroke-miterlimit="10"
   stroke-width="0.5"
   x1="251.28"
   x2="243.85001"
   y1="222.00999"
   y2="200.91"
   class="pluma-stroke" />
     <line
   fill="none"
   id="svg_26"
   stroke="#2b2b2b"
   stroke-linecap="round"
   stroke-linejoin="round"
   stroke-miterlimit="10"
   stroke-width="0.5"
   x1="266.10999"
   x2="290.97"
   y1="207.63"
   y2="214.35001"
   class="pluma-stroke" />
     <line
   fill="none"
   id="svg_27"
   stroke="#2b2b2b"
   stroke-linecap="round"
   stroke-linejoin="round"
   stroke-miterlimit="10"
   stroke-width="0.5"
   x1="272.13"
   x2="294.59"
   y1="201.95"
   y2="209.24001"
   class="pluma-stroke" />
     <line
   fill="none"
   id="svg_28"
   stroke="#2b2b2b"
   stroke-linecap="round"
   stroke-linejoin="round"
   stroke-miterlimit="10"
   stroke-width="0.5"
   x1="282.82001"
   x2="278.60001"
   y1="192.31"
   y2="172"
   class="pluma-stroke" />
     <line
   fill="none"
   id="svg_29"
   stroke="#2b2b2b"
   stroke-linecap="round"
   stroke-linejoin="round"
   stroke-miterlimit="10"
   stroke-width="0.5"
   x1="299.42999"
   x2="313.14999"
   y1="177.37"
   y2="182.96001"
   class="pluma-stroke" />
     <line
   fill="none"
   id="svg_30"
   stroke="#2b2b2b"
   stroke-linecap="round"
   stroke-linejoin="round"
   stroke-miterlimit="10"
   stroke-width="0.5"
   x1="242.53"
   x2="265.35999"
   y1="231.03"
   y2="236.2"
   class="pluma-stroke" />
    </g>
   </g>
  </g>
</svg>
